<?xml version="1.0" encoding="UTF-8"?>
<svg xmlns="http://www.w3.org/2000/svg" xmlns:xlink="http://www.w3.org/1999/xlink" viewBox="0 0 50 50" version="1.1" fill="#ffffff"><g id="surface1" fill="#ffffff"><path style=" " d="M 20 2 C 18.355469 2 17 3.355469 17 5 L 17 7 L 4.917969 7 C 3.308594 7 2 8.296875 2 9.890625 L 2 40.109375 C 2 41.703125 3.308594 43 4.917969 43 L 28.757813 43 L 29.667969 42.09375 C 29.460938 41.738281 29.289063 41.371094 29.117188 41 L 4.917969 41 C 4.410156 41 4 40.601563 4 40.109375 L 4 27.832031 C 4.289063 27.933594 4.597656 28 4.917969 28 L 31.078125 28 C 31.761719 27.242188 32.53125 26.566406 33.378906 26 L 4.917969 26 C 4.410156 26 4 25.550781 4 25 L 4 9.890625 C 4 9.398438 4.410156 9 4.917969 9 L 17.832031 9 C 17.941406 9.019531 18.050781 9.019531 18.15625 9 L 31.832031 9 C 31.941406 9.019531 32.050781 9.019531 32.15625 9 L 45.082031 9 C 45.589844 9 46 9.398438 46 9.890625 L 46 25.628906 C 46.714844 26.046875 47.386719 26.53125 48 27.082031 L 48 9.890625 C 48 8.296875 46.691406 7 45.082031 7 L 33 7 L 33 5 C 33 3.355469 31.644531 2 30 2 Z M 20 4 L 30 4 C 30.5625 4 31 4.4375 31 5 L 31 7 L 19 7 L 19 5 C 19 4.4375 19.4375 4 20 4 Z M 25 20 C 23.894531 20 23 20.894531 23 22 C 23 23.105469 23.894531 24 25 24 C 26.105469 24 27 23.105469 27 22 C 27 20.894531 26.105469 20 25 20 Z M 40 26 C 34.488281 26 30 30.488281 30 36 C 30 38.398438 30.851563 40.597656 32.265625 42.324219 L 26.292969 48.292969 L 27.707031 49.707031 L 33.675781 43.734375 C 35.402344 45.148438 37.601563 46 40 46 C 45.511719 46 50 41.511719 50 36 C 50 30.488281 45.511719 26 40 26 Z M 40 28 C 44.429688 28 48 31.570313 48 36 C 48 40.429688 44.429688 44 40 44 C 35.570313 44 32 40.429688 32 36 C 32 31.570313 35.570313 28 40 28 Z " fill="#ffffff"/></g></svg>
